<svg xmlns="http://www.w3.org/2000/svg" width="1200" height="150">
<rect fill="#00193d" x="0" y="40" width="52" height="70"/>
<rect fill="#05597f" x="52" y="40" width="51" height="70"/>
<rect fill="#54babf" x="103" y="40" width="51" height="70"/>
<rect fill="#bfe3c2" x="154" y="40" width="51" height="70"/>
<rect fill="#ffbf6b" x="205" y="40" width="51" height="70"/>
<rect fill="#fdb55c" x="256" y="40" width="51" height="70"/>
<rect fill="#f37f73" x="307" y="40" width="51" height="70"/>
<rect fill="#b45bbc" x="358" y="40" width="51" height="70"/>
<rect fill="#7e38ce" x="409" y="40" width="501" height="70"/>
<rect fill="#00285f" x="910" y="40" width="292" height="70"/>
<polyline points="116.8,0 116.8,30 26.0,30 26.0,75.0" stroke="#00193d" fill="none" stroke-width="5" />
<polyline points="116.8,150 116.8,120 77.5,120 77.5,75.0" stroke="#05597f" fill="none" stroke-width="5" />
<polyline points="356.8,0 356.8,20 128.5,20 128.5,75.0" stroke="#54babf" fill="none" stroke-width="5" />
<polyline points="356.8,150 356.8,130 179.5,130 179.5,75.0" stroke="#bfe3c2" fill="none" stroke-width="5" />
<polyline points="596.8,0 596.8,10 230.5,10 230.5,75.0" stroke="#ffbf6b" fill="none" stroke-width="5" />
<polyline points="596.8,150 596.8,140 281.5,140 281.5,75.0" stroke="#fdb55c" fill="none" stroke-width="5" />
<polyline points="836.8,0 836.8,20 332.5,20 332.5,75.0" stroke="#f37f73" fill="none" stroke-width="5" />
<polyline points="836.8,150 836.8,130 383.5,130 383.5,75.0" stroke="#b45bbc" fill="none" stroke-width="5" />
<polyline points="1076.8,0 1076.8,30 659.5,30 659.5,75.0" stroke="#7e38ce" fill="none" stroke-width="5" />
<polyline points="1076.8,150 1076.8,120 1055.0,120 1055.0,75.0" stroke="#00285f" fill="none" stroke-width="5" />
<line x1="0" y1="40" x2="0" y2="110" stroke="gray" stroke-width="2" />
<text x="5" y="105" fill="gray" font-size="20" font-family="Liberation Sans">0</text>
<line x1="150" y1="40" x2="150" y2="110" stroke="gray" stroke-width="2" />
<text x="155" y="105" fill="gray" font-size="20" font-family="Liberation Sans">3</text>
<line x1="300" y1="40" x2="300" y2="110" stroke="gray" stroke-width="2" />
<text x="305" y="105" fill="gray" font-size="20" font-family="Liberation Sans">6</text>
<line x1="450" y1="40" x2="450" y2="110" stroke="gray" stroke-width="2" />
<text x="455" y="105" fill="gray" font-size="20" font-family="Liberation Sans">9</text>
<line x1="600" y1="40" x2="600" y2="110" stroke="gray" stroke-width="2" />
<text x="605" y="105" fill="gray" font-size="20" font-family="Liberation Sans">12</text>
<line x1="750" y1="40" x2="750" y2="110" stroke="gray" stroke-width="2" />
<text x="755" y="105" fill="gray" font-size="20" font-family="Liberation Sans">15</text>
<line x1="900" y1="40" x2="900" y2="110" stroke="gray" stroke-width="2" />
<text x="905" y="105" fill="gray" font-size="20" font-family="Liberation Sans">18</text>
<line x1="1050" y1="40" x2="1050" y2="110" stroke="gray" stroke-width="2" />
<text x="1055" y="105" fill="gray" font-size="20" font-family="Liberation Sans">21</text>
</svg>
